<?xml version="1.0" encoding="UTF-8" standalone="no"?><!DOCTYPE svg PUBLIC "-//W3C//DTD SVG 1.1//EN" "http://www.w3.org/Graphics/SVG/1.1/DTD/svg11.dtd"><svg width="100%" height="100%" viewBox="0 0 128 64" version="1.1" xmlns="http://www.w3.org/2000/svg" xmlns:xlink="http://www.w3.org/1999/xlink" xml:space="preserve" xmlns:serif="http://www.serif.com/" style="fill-rule:evenodd;clip-rule:evenodd;stroke-linejoin:round;stroke-miterlimit:2;"><g><g><g><text x="2.47px" y="43.474px" style="font-family:'Roboto-Regular', 'Roboto';font-size:40.167px;fill:#ebebeb;">Pur</text><text x="62.936px" y="43.474px" style="font-family:'Roboto-Regular', 'Roboto';font-size:40.167px;fill:#ebebeb;">e</text></g></g><g><path d="M106.871,25.148c0,-6.947 -3.98,-10.894 -9.851,-10.894c-5.871,0 -9.85,3.914 -9.85,10.894c0,6.981 3.979,11.09 9.85,11.09c5.871,0 9.851,-4.109 9.851,-11.09Zm-13.961,0c0,-3.849 1.566,-6.067 4.11,-6.067c2.544,0 4.11,2.218 4.11,6.067c0,3.849 -1.566,6.263 -4.11,6.263c-2.544,0 -4.11,-2.414 -4.11,-6.263Z" style="fill:#ebebeb;fill-rule:nonzero;"/><path d="M121.882,48.528l0,-2.263c0,-0.672 -0.544,-1.217 -1.216,-1.218l-5.433,-0.009c2.805,-2.87 5.67,-6.252 5.67,-9.579c0,-4.109 -2.935,-6.784 -7.11,-6.784c-2.634,0 -4.45,0.77 -6.274,2.434c-0.511,0.467 -0.527,1.269 -0.037,1.758l1.296,1.297c0.455,0.454 1.183,0.475 1.667,0.052c0.75,-0.656 1.571,-1.17 2.565,-1.17c1.5,0 2.544,0.88 2.544,2.74c0,2.729 -3.582,6.076 -8.283,10.402c-0.251,0.23 -0.393,0.555 -0.393,0.896l0,1.444c0,0.673 0.545,1.218 1.217,1.218l12.569,0c0.673,0 1.218,-0.545 1.218,-1.218Z" style="fill:#ebebeb;fill-rule:nonzero;"/></g></g></svg>